{
	"asset" : {
		"generator" : "FME 2017.0.0.0",
		"version" : "1.0.1"
	},
	"images" : {
		"img_0" : {
			"uri" : "textures/H10G0244.jpg"
		}
	},
	"samplers" : {
		"s_0" : {
			"wrapS" : 10497,
			"wrapT" : 10497
		}
	},
	"textures" : {
		"t_0" : {
			"source" : "img_0",
			"sampler" : "s_0"
		}
	},
	"materials" : {
		"mat_0" : {
			"name" : "default_material",
			"extensions" : {
				"KHR_materials_common" : {
					"technique" : "PHONG",
					"values" : {
						"diffuse" : [ 0.8, 0.8, 0.8, 1 ]
					}
				}
			}
		},
		"mat_1" : {
			"name" : "H10G0244",
			"extensions" : {
				"KHR_materials_common" : {
					"technique" : "PHONG",
					"values" : {
						"ambient" : [ 0.60000002384185791, 0.60000002384185791, 0.60000002384185791, 1 ],
						"diffuse" : "t_0",
						"specular" : [ 0.80000001192092896, 0.80000001192092896, 0.80000001192092896, 1 ],
						"shininess" : 12.800000190734863
					}
				}
			}
		}
	},
	"meshes" : {
		"mesh_0" : {
			"primitives" : [
				{
					"attributes" : {
						"NORMAL" : "a_1",
						"POSITION" : "a_0",
						"TEXCOORD_0" : "a_2"
					},
					"indices" : "a_3",
					"material" : "mat_1",
					"mode" : 4
				}
			]
		}
	},
	"nodes" : {
		"n_0" : {
			"matrix" : [ 1, 0, 0, 0, 0, 0, -1, 0, 0, 1, 0, 0, 0, 0, 0, 1 ],
			"meshes" : [ "mesh_0" ]
		}
	},
	"scenes" : {
		"scene_0" : {
			"nodes" : [ "n_0" ]
		}
	},
	"scene" : "scene_0",
	"extensionsUsed" : [ "KHR_materials_common" ],
	"accessors" : {
		"a_0" : {
			"bufferView" : "bv_0",
			"byteOffset" : 0,
			"componentType" : 5126,
			"count" : 1491,
			"type" : "VEC3",
			"min" : [ -35.590084075927734, -39.210674285888672, -0.39227607846260071 ],
			"max" : [ 35.590084075927734, 39.210674285888672, 128.56083679199219 ]
		},
		"a_1" : {
			"bufferView" : "bv_1",
			"byteOffset" : 0,
			"componentType" : 5126,
			"count" : 1491,
			"type" : "VEC3",
			"min" : [ -0.99315166473388672, -0.99944531917572021, -1 ],
			"max" : [ 0.97618013620376587, 0.98455631732940674, 1 ]
		},
		"a_2" : {
			"bufferView" : "bv_2",
			"byteOffset" : 0,
			"componentType" : 5126,
			"count" : 1491,
			"type" : "VEC2",
			"min" : [ 0, 0 ],
			"max" : [ 0.99950540065765381, 0.99943810701370239 ]
		},
		"a_3" : {
			"bufferView" : "bv_3",
			"byteOffset" : 0,
			"componentType" : 5123,
			"count" : 1491,
			"type" : "SCALAR",
			"min" : [ 0 ],
			"max" : [ 1490 ]
		}
	},
	"bufferViews" : {
		"bv_0" : {
			"buffer" : "buf_0",
			"byteOffset" : 0,
			"byteLength" : 17892,
			"target" : 34962
		},
		"bv_1" : {
			"buffer" : "buf_0",
			"byteOffset" : 17892,
			"byteLength" : 17892,
			"target" : 34962
		},
		"bv_2" : {
			"buffer" : "buf_0",
			"byteOffset" : 35784,
			"byteLength" : 11928,
			"target" : 34962
		},
		"bv_3" : {
			"buffer" : "buf_0",
			"byteOffset" : 47712,
			"byteLength" : 2982,
			"target" : 34963
		}
	},
	"buffers" : {
		"buf_0" : {
			"uri" : "H10G0244.bin",
			"byteLength" : 50694,
			"type" : "arraybuffer"
		}
	}
}